<svg width="21" height="29" viewBox="0 0 21 29" fill="none" xmlns="http://www.w3.org/2000/svg">
<path fill-rule="evenodd" clip-rule="evenodd" d="M3.33596 9.24C3.33596 10.776 4.58396 11.808 7.10396 12.312C8.13965 12.5109 8.98942 12.7726 9.6582 13.1438L9.18293 14.8639C8.66373 14.3935 7.88267 14.1399 6.88796 13.968C3.79196 13.416 1.72796 11.808 1.72796 9.312C1.72796 6.864 3.69596 5.112 6.45596 5.112C8.39996 5.112 10.128 5.88 10.968 7.152L9.83996 8.208C8.80796 7.032 8.01596 6.672 6.67196 6.672C4.55996 6.672 3.33596 7.608 3.33596 9.24ZM7.87531 19.5965C7.41174 19.7192 6.87909 19.776 6.28796 19.776C4.70396 19.776 3.52796 19.272 2.80796 18.216L1.63196 19.32C2.23196 20.472 4.12796 21.312 6.09596 21.312C6.56365 21.312 7.00789 21.2823 7.42598 21.2227L7.87531 19.5965ZM12.0715 16.608H16.2673L17.5393 21H19.2433L14.8273 5.4H12.4513L11.1616 10.3022L12.8199 10.7604L13.5553 8.064H13.8193L15.8833 15.192H12.4627L12.0715 16.608Z" fill="#484848"/>
</svg>
