<svg xmlns:xlink="http://www.w3.org/1999/xlink" xmlns="http://www.w3.org/2000/svg" width="121.5" height="69.5"
     viewBox="0 0 243 139">
    <g>
        <g>
            <path fill="#05AF4D"
                  d="M110.783 79.39c0 26.304-21.237 47.627-47.435 47.627-12.794 0-24.405-5.086-32.937-13.353l-10.696 10.06a10.482 10.482 0 0 1 1.143 5.471c-.36 5.785-5.324 10.182-11.086 9.82-5.762-.364-10.14-5.347-9.78-11.132.361-5.785 5.324-10.182 11.086-9.82 1.736.11 3.346.639 4.739 1.482l10.734-10.096A47.547 47.547 0 0 1 15.913 79.39c0-16.604 8.462-31.223 21.293-39.748L29.03 27.93a14.202 14.202 0 0 1-6.487.748C14.69 27.765 9.06 20.632 9.97 12.747 10.88 4.864 17.983-.788 25.836.126c7.853.913 13.482 8.045 12.572 15.93a14.334 14.334 0 0 1-3.203 7.525l8.643 12.38a47.103 47.103 0 0 1 19.5-4.197c19.781 0 36.734 12.157 43.852 29.435l9.304-6.619a7.21 7.21 0 0 1-.223-3.856c.84-3.896 4.664-6.372 8.544-5.53 3.88.843 6.346 4.683 5.507 8.579-.839 3.895-4.664 6.371-8.544 5.529a7.147 7.147 0 0 1-2.929-1.383l-10.22 7.271a47.788 47.788 0 0 1 2.144 14.201zM44.102 51.614h-7.009v49.26h7.009zM93.087 79.41c0-10.978-6.378-16.186-15.42-16.186-5.887 0-10.654 2.182-13.387 5.981v-5.629h-6.448v37.298h6.729V81.662c0-8.093 4.625-12.386 11.775-12.386 6.377 0 10.023 3.59 10.023 10.909v20.69h6.728zm27.645-15.272h3.505v36.736h-3.505zm12.89 32.303l1.613-2.815c2.802 2.393 7.78 4.433 13.176 4.433 7.71 0 10.794-2.744 10.794-6.897 0-10.697-24.251-2.815-24.251-17.24 0-5.56 4.626-10.064 13.877-10.064 4.626 0 9.673 1.407 12.546 3.588l-1.612 2.815c-3.084-2.252-7.08-3.307-11.005-3.307-7.148 0-10.302 2.956-10.302 6.897 0 11.048 24.25 3.237 24.25 17.24 0 5.983-5.115 10.065-14.438 10.065-6.027 0-11.775-2.041-14.649-4.715zm69.799-13.09h-31.47c.35 8.727 6.728 14.638 15.489 14.638 4.626 0 8.9-1.69 11.704-5.138l2.034 2.322c-3.226 3.942-8.272 5.983-13.809 5.983-11.073 0-18.853-7.742-18.853-18.65 0-10.907 7.5-18.648 17.522-18.648 10.023 0 17.452 7.6 17.452 18.508 0 .28-.07.634-.07.985zm-31.4-2.745h28.035c-.49-7.951-6.238-13.652-14.018-13.652s-13.457 5.63-14.018 13.652zm70.985-16.468l-16.541 36.736h-3.575L206.42 64.14h3.714l14.579 32.864 14.72-32.865z"/>
        </g>
    </g>
</svg>